<svg width="25" height="26" viewBox="0 0 25 26" fill="none" xmlns="http://www.w3.org/2000/svg">
<path d="M17.1413 14.25V20.5H20.284V14.25H17.1413ZM9.28466 5.625C8.36805 5.83333 7.61512 6.23958 7.02587 6.84375C6.43662 7.44792 6.142 8.14584 6.142 8.9375V20.5H9.28466V5.625ZM10.4632 0.500002C7.73952 0.500002 5.4218 1.26042 3.51002 2.78125C1.59823 4.30208 0.642334 6.14584 0.642334 8.3125V19.875C0.642334 21.4375 1.32979 22.7656 2.70471 23.8594C4.07962 24.9531 5.74917 25.5 7.71333 25.5C9.6775 25.5 11.347 24.9531 12.722 23.8594C14.0969 22.7656 14.7843 21.4375 14.7843 19.875V10.5H11.6417V19.875C11.6155 20.75 11.2292 21.4896 10.4828 22.0938C9.73642 22.6979 8.81326 23 7.71333 23C6.6134 23 5.68369 22.6979 4.92422 22.0938C4.16474 21.4896 3.785 20.75 3.785 19.875V8.3125C3.75881 6.83334 4.40044 5.57812 5.70988 4.54688C7.01933 3.51563 8.60375 3 10.4632 3C11.1179 3 11.7399 3.06771 12.3291 3.20313C12.9184 3.33854 13.4749 3.54167 13.9987 3.8125V1.03125C13.4487 0.864584 12.8791 0.734377 12.2898 0.640627C11.7006 0.546877 11.0917 0.500002 10.4632 0.500002ZM17.1413 1.75V5.5H12.4273V8H17.1413V11.75H20.284V8H24.998V5.5H20.284V1.75H17.1413Z" fill="#1C1B1F"/>
</svg>
