<svg width="24" height="24" viewBox="0 0 24 24" fill="none" xmlns="http://www.w3.org/2000/svg">
<path d="M12 16C11.2089 16 10.4355 15.7654 9.77772 15.3259C9.11992 14.8864 8.60723 14.2616 8.30448 13.5307C8.00173 12.7998 7.92252 11.9956 8.07686 11.2196C8.2312 10.4437 8.61216 9.73099 9.17157 9.17158C9.73098 8.61217 10.4437 8.2312 11.2196 8.07686C11.9956 7.92252 12.7998 8.00173 13.5307 8.30448C14.2616 8.60723 14.8864 9.11993 15.3259 9.77772C15.7654 10.4355 16 11.2089 16 12C16 13.0609 15.5786 14.0783 14.8284 14.8284C14.0783 15.5786 13.0609 16 12 16ZM12 10C11.6044 10 11.2178 10.1173 10.8889 10.3371C10.56 10.5568 10.3036 10.8692 10.1522 11.2346C10.0009 11.6001 9.96126 12.0022 10.0384 12.3902C10.1156 12.7781 10.3061 13.1345 10.5858 13.4142C10.8655 13.6939 11.2219 13.8844 11.6098 13.9616C11.9978 14.0387 12.3999 13.9991 12.7654 13.8478C13.1308 13.6964 13.4432 13.44 13.6629 13.1111C13.8827 12.7822 14 12.3956 14 12C14 11.4696 13.7893 10.9609 13.4142 10.5858C13.0391 10.2107 12.5304 10 12 10ZM18 23C18 21.4087 17.3679 19.8826 16.2426 18.7574C15.1174 17.6321 13.5913 17 12 17C10.4087 17 8.88258 17.6321 7.75736 18.7574C6.63214 19.8826 6 21.4087 6 23C6 23.2652 6.10536 23.5196 6.29289 23.7071C6.48043 23.8946 6.73478 24 7 24C7.26522 24 7.51957 23.8946 7.70711 23.7071C7.89464 23.5196 8 23.2652 8 23C8 21.9391 8.42143 20.9217 9.17157 20.1716C9.92172 19.4214 10.9391 19 12 19C13.0609 19 14.0783 19.4214 14.8284 20.1716C15.5786 20.9217 16 21.9391 16 23C16 23.2652 16.1054 23.5196 16.2929 23.7071C16.4804 23.8946 16.7348 24 17 24C17.2652 24 17.5196 23.8946 17.7071 23.7071C17.8946 23.5196 18 23.2652 18 23ZM18 8C17.2089 8 16.4355 7.76541 15.7777 7.32588C15.1199 6.88636 14.6072 6.26164 14.3045 5.53074C14.0017 4.79983 13.9225 3.99557 14.0769 3.21964C14.2312 2.44372 14.6122 1.73098 15.1716 1.17157C15.731 0.612165 16.4437 0.231202 17.2196 0.0768607C17.9956 -0.0774802 18.7998 0.00173312 19.5307 0.304484C20.2616 0.607234 20.8864 1.11992 21.3259 1.77772C21.7654 2.43552 22 3.20888 22 4C22 5.06087 21.5786 6.07828 20.8284 6.82843C20.0783 7.57858 19.0609 8 18 8ZM18 2C17.6044 2 17.2178 2.1173 16.8889 2.33706C16.56 2.55683 16.3036 2.86918 16.1522 3.23464C16.0009 3.60009 15.9613 4.00222 16.0384 4.39018C16.1156 4.77815 16.3061 5.13451 16.5858 5.41422C16.8655 5.69392 17.2219 5.8844 17.6098 5.96157C17.9978 6.03874 18.3999 5.99914 18.7654 5.84776C19.1308 5.69639 19.4432 5.44004 19.6629 5.11114C19.8827 4.78224 20 4.39557 20 4C20 3.46957 19.7893 2.96086 19.4142 2.58579C19.0391 2.21072 18.5304 2 18 2ZM24 15C23.9984 13.4092 23.3658 11.884 22.2409 10.7591C21.116 9.63424 19.5908 9.00159 18 9C17.7348 9 17.4804 9.10536 17.2929 9.2929C17.1054 9.48043 17 9.73479 17 10C17 10.2652 17.1054 10.5196 17.2929 10.7071C17.4804 10.8946 17.7348 11 18 11C19.0609 11 20.0783 11.4214 20.8284 12.1716C21.5786 12.9217 22 13.9391 22 15C22 15.2652 22.1054 15.5196 22.2929 15.7071C22.4804 15.8946 22.7348 16 23 16C23.2652 16 23.5196 15.8946 23.7071 15.7071C23.8946 15.5196 24 15.2652 24 15ZM6 8C5.20887 8 4.43552 7.76541 3.77772 7.32588C3.11992 6.88636 2.60723 6.26164 2.30448 5.53074C2.00173 4.79983 1.92252 3.99557 2.07686 3.21964C2.2312 2.44372 2.61216 1.73098 3.17157 1.17157C3.73098 0.612165 4.44371 0.231202 5.21964 0.0768607C5.99556 -0.0774802 6.79983 0.00173312 7.53073 0.304484C8.26164 0.607234 8.88635 1.11992 9.32588 1.77772C9.7654 2.43552 10 3.20888 10 4C10 5.06087 9.57857 6.07828 8.82843 6.82843C8.07828 7.57858 7.06087 8 6 8ZM6 2C5.60444 2 5.21776 2.1173 4.88886 2.33706C4.55996 2.55683 4.30362 2.86918 4.15224 3.23464C4.00087 3.60009 3.96126 4.00222 4.03843 4.39018C4.1156 4.77815 4.30608 5.13451 4.58579 5.41422C4.86549 5.69392 5.22186 5.8844 5.60982 5.96157C5.99778 6.03874 6.39991 5.99914 6.76537 5.84776C7.13082 5.69639 7.44318 5.44004 7.66294 5.11114C7.8827 4.78224 8 4.39557 8 4C8 3.46957 7.78929 2.96086 7.41421 2.58579C7.03914 2.21072 6.53043 2 6 2ZM2 15C2 13.9391 2.42143 12.9217 3.17157 12.1716C3.92172 11.4214 4.93913 11 6 11C6.26522 11 6.51957 10.8946 6.70711 10.7071C6.89464 10.5196 7 10.2652 7 10C7 9.73479 6.89464 9.48043 6.70711 9.2929C6.51957 9.10536 6.26522 9 6 9C4.40919 9.00159 2.88399 9.63424 1.75911 10.7591C0.63424 11.884 0.00158843 13.4092 0 15C0 15.2652 0.105357 15.5196 0.292893 15.7071C0.48043 15.8946 0.734784 16 1 16C1.26522 16 1.51957 15.8946 1.70711 15.7071C1.89464 15.5196 2 15.2652 2 15Z" fill="black" stroke="black"/>
</svg>
