<svg width="42" height="9" viewBox="0 0 42 9" fill="none" xmlns="http://www.w3.org/2000/svg">
<path d="M0.177557 8L1.38494 0.727273H2.92259L2.42543 3.72798H5.54688L6.04403 0.727273H7.57812L6.37074 8H4.83665L5.33381 4.99574H2.21236L1.7152 8H0.177557ZM13.3381 0.727273H14.8757L14.0945 5.45028C14.0069 5.98059 13.8045 6.4446 13.4872 6.84233C13.17 7.24006 12.7663 7.55019 12.2763 7.77273C11.7862 7.9929 11.2393 8.10298 10.6357 8.10298C10.032 8.10298 9.52296 7.9929 9.10866 7.77273C8.69437 7.55019 8.39489 7.24006 8.21023 6.84233C8.02557 6.4446 7.97704 5.98059 8.06463 5.45028L8.84588 0.727273H10.3835L9.62003 5.31889C9.57741 5.59588 9.59872 5.84209 9.68395 6.05753C9.77154 6.27296 9.91596 6.44223 10.1172 6.56534C10.3184 6.68845 10.567 6.75 10.8629 6.75C11.1612 6.75 11.4311 6.68845 11.6726 6.56534C11.9164 6.44223 12.1165 6.27296 12.2727 6.05753C12.4313 5.84209 12.532 5.59588 12.5746 5.31889L13.3381 0.727273ZM14.9334 8L16.1408 0.727273H19.0527C19.5878 0.727273 20.021 0.806581 20.3525 0.965199C20.6863 1.12382 20.9194 1.34399 21.052 1.62571C21.1846 1.90507 21.2201 2.22704 21.1586 2.59162C21.1088 2.87571 21.0082 3.12429 20.8567 3.33736C20.7076 3.55043 20.5229 3.72562 20.3027 3.86293C20.0826 4.00024 19.8435 4.0973 19.5854 4.15412L19.5712 4.22514C19.8458 4.23698 20.0932 4.3151 20.3134 4.45952C20.5336 4.60156 20.6981 4.80279 20.807 5.06321C20.9159 5.32363 20.9408 5.63258 20.8816 5.99006C20.8176 6.37595 20.665 6.72041 20.4235 7.02344C20.182 7.3241 19.86 7.56203 19.4576 7.73722C19.0575 7.91241 18.5852 8 18.0407 8H14.9334ZM16.6841 6.7429H17.9377C18.3638 6.7429 18.6893 6.66004 18.9142 6.49432C19.1391 6.3286 19.2741 6.10961 19.3191 5.83736C19.3498 5.63613 19.3297 5.45857 19.2587 5.30469C19.19 5.1508 19.0729 5.03007 18.9071 4.94247C18.7438 4.85488 18.5366 4.81108 18.2857 4.81108H17.0002L16.6841 6.7429ZM17.1777 3.7706H18.3176C18.526 3.7706 18.7189 3.7339 18.8965 3.66051C19.0764 3.58475 19.2244 3.47822 19.3404 3.34091C19.4587 3.20123 19.5333 3.0367 19.5641 2.8473C19.6067 2.58215 19.5475 2.37027 19.3865 2.21165C19.2279 2.05066 18.9793 1.97017 18.6408 1.97017H17.476L17.1777 3.7706ZM23.7761 8L23.9078 7.22443L25.9959 5.54652C26.1749 5.39737 26.3265 5.26314 26.4508 5.14382C26.5768 5.0245 26.6762 4.90767 26.7491 4.79332C26.8237 4.67732 26.8726 4.5522 26.8958 4.41797C26.9206 4.26882 26.9082 4.14039 26.8585 4.03267C26.8104 3.9233 26.7325 3.83961 26.6248 3.7816C26.5188 3.72195 26.3912 3.69212 26.242 3.69212C26.0862 3.69212 25.9445 3.7236 25.8169 3.78658C25.6893 3.84955 25.5833 3.93987 25.4988 4.05753C25.4142 4.17519 25.3579 4.31522 25.3297 4.47763H24.3081C24.3644 4.14453 24.4895 3.85535 24.6834 3.61009C24.8773 3.36482 25.1209 3.17507 25.4142 3.04084C25.7076 2.9066 26.0324 2.83949 26.3887 2.83949C26.7533 2.83949 27.0598 2.90412 27.3084 3.03338C27.5587 3.16098 27.7401 3.3383 27.8528 3.56534C27.9655 3.79238 27.997 4.05256 27.9473 4.34588C27.9141 4.53977 27.8437 4.73035 27.736 4.91761C27.6283 5.10322 27.4592 5.31037 27.2289 5.53906C26.9985 5.7661 26.6828 6.03871 26.2818 6.35689L25.4192 7.08523L25.4118 7.12003H27.552L27.4054 8H23.7761ZM30.164 8.11186C29.7364 8.11186 29.3859 8.00746 29.1125 7.79865C28.839 7.58819 28.6526 7.28492 28.5532 6.88885C28.4554 6.49278 28.4529 6.01634 28.5457 5.45952C28.6402 4.90436 28.8018 4.43123 29.0305 4.04013C29.2608 3.64903 29.5458 3.35156 29.8856 3.14773C30.2269 2.94223 30.6106 2.83949 31.0365 2.83949C31.4607 2.83949 31.8096 2.94223 32.083 3.14773C32.3564 3.35322 32.5437 3.65069 32.6448 4.04013C32.7475 4.42957 32.7525 4.9027 32.6597 5.45952C32.5669 6.01799 32.4053 6.49527 32.175 6.89134C31.9446 7.28575 31.6588 7.58819 31.3174 7.79865C30.976 8.00746 30.5915 8.11186 30.164 8.11186ZM30.3131 7.21946C30.6064 7.21946 30.8633 7.0728 31.0837 6.77947C31.3041 6.48615 31.4632 6.04616 31.561 5.45952C31.6256 5.07505 31.6397 4.75438 31.6032 4.49751C31.5684 4.23899 31.4897 4.0451 31.3671 3.91584C31.2445 3.78658 31.0862 3.72195 30.8923 3.72195C30.6023 3.72195 30.3454 3.86778 30.1217 4.15945C29.8997 4.44946 29.7406 4.88281 29.6444 5.45952C29.5798 5.85062 29.5657 6.17708 29.6022 6.43892C29.6386 6.6991 29.7182 6.89465 29.8408 7.02557C29.9635 7.15483 30.1209 7.21946 30.3131 7.21946ZM33.0046 8L33.1364 7.22443L35.2244 5.54652C35.4034 5.39737 35.555 5.26314 35.6793 5.14382C35.8053 5.0245 35.9047 4.90767 35.9776 4.79332C36.0522 4.67732 36.1011 4.5522 36.1243 4.41797C36.1491 4.26882 36.1367 4.14039 36.087 4.03267C36.0389 3.9233 35.9611 3.83961 35.8533 3.7816C35.7473 3.72195 35.6197 3.69212 35.4705 3.69212C35.3147 3.69212 35.1731 3.7236 35.0455 3.78658C34.9179 3.84955 34.8118 3.93987 34.7273 4.05753C34.6428 4.17519 34.5864 4.31522 34.5582 4.47763H33.5366C33.5929 4.14453 33.718 3.85535 33.9119 3.61009C34.1058 3.36482 34.3494 3.17507 34.6428 3.04084C34.9361 2.9066 35.2609 2.83949 35.6172 2.83949C35.9818 2.83949 36.2884 2.90412 36.5369 3.03338C36.7872 3.16098 36.9686 3.3383 37.0813 3.56534C37.194 3.79238 37.2255 4.05256 37.1758 4.34588C37.1426 4.53977 37.0722 4.73035 36.9645 4.91761C36.8568 5.10322 36.6877 5.31037 36.4574 5.53906C36.227 5.7661 35.9113 6.03871 35.5103 6.35689L34.6477 7.08523L34.6403 7.12003H36.7805L36.6339 8H33.0046ZM37.3765 7.10511L37.5157 6.25746L40.1979 2.90909H40.9287L40.7348 4.08239H40.2998L38.6095 6.20277L38.6045 6.24254H41.6222L41.4806 7.10511H37.3765ZM39.6709 8L39.8648 6.84411L39.9468 6.47372L40.536 2.90909H41.5452L40.7 8H39.6709Z" fill="black"/>
</svg>
