<svg width="34" height="22" viewBox="0 0 34 22" fill="none" xmlns="http://www.w3.org/2000/svg">
<path d="M28.3333 0.333336C29.0848 0.333336 29.8054 0.614287 30.3368 1.11438C30.8682 1.61448 31.1667 2.29276 31.1667 3V16.3333C31.1667 17.8133 29.9058 19 28.3333 19H34V21.6667H0V19H5.66667C4.91522 19 4.19455 18.7191 3.6632 18.219C3.13184 17.7189 2.83333 17.0406 2.83333 16.3333V3C2.83333 1.52 4.09417 0.333336 5.66667 0.333336H28.3333ZM28.3333 3H5.66667V16.3333H28.3333V3ZM17 11C20.1308 11 22.6667 12.2 22.6667 13.6667V15H11.3333V13.6667C11.3333 12.2 13.8692 11 17 11ZM17 4.33334C17.7514 4.33334 18.4721 4.61429 19.0035 5.11438C19.5348 5.61448 19.8333 6.29276 19.8333 7C19.8333 7.70725 19.5348 8.38552 19.0035 8.88562C18.4721 9.38572 17.7514 9.66667 17 9.66667C15.4275 9.66667 14.1667 8.48 14.1667 7C14.1667 5.52 15.4417 4.33334 17 4.33334Z" fill="black"/>
</svg>
