<svg width="32" height="32" viewBox="0 0 32 32" fill="none" xmlns="http://www.w3.org/2000/svg">
<path d="M10.4 14.4C9.73334 14.4 9.16667 14.1667 8.7 13.7C8.23333 13.2333 8 12.6667 8 12C8 11.3333 8.23333 10.7667 8.7 10.3C9.16667 9.83333 9.73334 9.6 10.4 9.6C11.0667 9.6 11.6333 9.83333 12.1 10.3C12.5667 10.7667 12.8 11.3333 12.8 12C12.8 12.6667 12.5667 13.2333 12.1 13.7C11.6333 14.1667 11.0667 14.4 10.4 14.4ZM21.6 14.4C20.9333 14.4 20.3667 14.1667 19.9 13.7C19.4333 13.2333 19.2 12.6667 19.2 12C19.2 11.3333 19.4333 10.7667 19.9 10.3C20.3667 9.83333 20.9333 9.6 21.6 9.6C22.2667 9.6 22.8333 9.83333 23.3 10.3C23.7667 10.7667 24 11.3333 24 12C24 12.6667 23.7667 13.2333 23.3 13.7C22.8333 14.1667 22.2667 14.4 21.6 14.4ZM16 24.8C14.1867 24.8 12.54 24.2867 11.06 23.26C9.58 22.2333 8.50667 20.88 7.84 19.2H24.16C23.4933 20.88 22.42 22.2333 20.94 23.26C19.46 24.2867 17.8133 24.8 16 24.8ZM16 32C18.2133 32 20.2933 31.58 22.24 30.74C24.1867 29.9 25.88 28.76 27.32 27.32C28.76 25.88 29.9 24.1867 30.74 22.24C31.58 20.2933 32 18.2133 32 16C32 13.7867 31.58 11.7067 30.74 9.76C29.9 7.81333 28.76 6.12 27.32 4.68C25.88 3.24 24.1867 2.1 22.24 1.26C20.2933 0.42 18.2133 0 16 0C13.7867 0 11.7067 0.42 9.76 1.26C7.81333 2.1 6.12 3.24 4.68 4.68C3.24 6.12 2.1 7.81333 1.26 9.76C0.420002 11.7067 0 13.7867 0 16C0 18.2133 0.420002 20.2933 1.26 22.24C2.1 24.1867 3.24 25.88 4.68 27.32C6.12 28.76 7.81333 29.9 9.76 30.74C11.7067 31.58 13.7867 32 16 32ZM16 28.8C12.4267 28.8 9.4 27.56 6.92 25.08C4.44 22.6 3.2 19.5733 3.2 16C3.2 12.4267 4.44 9.4 6.92 6.92C9.4 4.44 12.4267 3.2 16 3.2C19.5733 3.2 22.6 4.44 25.08 6.92C27.56 9.4 28.8 12.4267 28.8 16C28.8 19.5733 27.56 22.6 25.08 25.08C22.6 27.56 19.5733 28.8 16 28.8Z" fill="#1C1B1F"/>
</svg>
