<svg width="7" height="22" viewBox="0 0 7 22" fill="none" xmlns="http://www.w3.org/2000/svg">
<path d="M1.21164 2.95962C1.223 2.22638 1.4938 1.60272 2.02405 1.08865C2.55429 0.574573 3.18604 0.323215 3.91929 0.334572C4.65253 0.345929 5.27619 0.616732 5.79026 1.14698C6.30433 1.67723 6.55569 2.30897 6.54433 3.04222C6.53298 3.77546 6.26217 4.39912 5.73193 4.91319C5.20168 5.42727 4.56993 5.67862 3.83669 5.66727C3.10344 5.65591 2.47978 5.38511 1.96571 4.85486C1.45164 4.32461 1.20028 3.69287 1.21164 2.95962ZM1.08775 10.9587C1.0991 10.2254 1.3699 9.60176 1.90015 9.08769C2.4304 8.57361 3.06215 8.32226 3.79539 8.33361C4.52864 8.34497 5.15229 8.61577 5.66637 9.14602C6.18044 9.67627 6.4318 10.308 6.42044 11.0413C6.40908 11.7745 6.13828 12.3982 5.60803 12.9122C5.07779 13.4263 4.44604 13.6777 3.71279 13.6663C2.97955 13.655 2.35589 13.3841 1.84182 12.8539C1.32775 12.3237 1.07639 11.6919 1.08775 10.9587ZM0.963851 18.9577C0.975208 18.2245 1.24601 17.6008 1.77626 17.0867C2.3065 16.5727 2.93825 16.3213 3.6715 16.3327C4.40474 16.344 5.0284 16.6148 5.54247 17.1451C6.05654 17.6753 6.3079 18.3071 6.29654 19.0403C6.28519 19.7735 6.01439 20.3972 5.48414 20.9113C4.95389 21.4253 4.32214 21.6767 3.5889 21.6653C2.85565 21.654 2.232 21.3832 1.71792 20.8529C1.20385 20.3227 0.952494 19.6909 0.963851 18.9577Z" fill="#1C1B1F"/>
</svg>
