<svg width="28" height="28" viewBox="0 0 28 28" fill="none" xmlns="http://www.w3.org/2000/svg">
<path d="M0.666626 11.3333C0.666626 9.1111 1.16107 7.07221 2.14996 5.21666C3.13885 3.3611 4.46663 1.82221 6.13329 0.599989L7.69996 2.73332C6.36663 3.7111 5.30551 4.94443 4.51663 6.43332C3.72774 7.92221 3.33329 9.55555 3.33329 11.3333H0.666626ZM24.6666 11.3333C24.6666 9.55555 24.2722 7.92221 23.4833 6.43332C22.6944 4.94443 21.6333 3.7111 20.3 2.73332L21.8666 0.599989C23.5333 1.82221 24.8611 3.3611 25.85 5.21666C26.8388 7.07221 27.3333 9.1111 27.3333 11.3333H24.6666ZM3.33329 23.3333V20.6667H5.99996V11.3333C5.99996 9.48888 6.55551 7.84999 7.66663 6.41666C8.77774 4.98332 10.2222 4.04443 12 3.59999V2.66666C12 2.1111 12.1944 1.63888 12.5833 1.24999C12.9722 0.8611 13.4444 0.666656 14 0.666656C14.5555 0.666656 15.0277 0.8611 15.4166 1.24999C15.8055 1.63888 16 2.1111 16 2.66666V3.59999C17.7777 4.04443 19.2222 4.98332 20.3333 6.41666C21.4444 7.84999 22 9.48888 22 11.3333V20.6667H24.6666V23.3333H3.33329ZM14 27.3333C13.2666 27.3333 12.6388 27.0722 12.1166 26.55C11.5944 26.0278 11.3333 25.4 11.3333 24.6667H16.6666C16.6666 25.4 16.4055 26.0278 15.8833 26.55C15.3611 27.0722 14.7333 27.3333 14 27.3333ZM8.66663 20.6667H19.3333V11.3333C19.3333 9.86666 18.8111 8.6111 17.7666 7.56666C16.7222 6.52221 15.4666 5.99999 14 5.99999C12.5333 5.99999 11.2777 6.52221 10.2333 7.56666C9.18885 8.6111 8.66663 9.86666 8.66663 11.3333V20.6667Z" fill="black"/>
</svg>
