<svg width="25" height="24" viewBox="0 0 25 24" fill="none" xmlns="http://www.w3.org/2000/svg">
<path d="M22.9032 24C20.3752 24 17.7832 23.367 15.1272 22.101C12.4712 20.834 10.0042 19.0565 7.72624 16.7685C5.44624 14.4795 3.67324 12.012 2.40724 9.366C1.14124 6.72 0.50824 4.133 0.50824 1.605C0.50824 1.147 0.65824 0.7655 0.95824 0.4605C1.25824 0.1535 1.63324 0 2.08324 0H5.79274C6.20074 0 6.55674 0.1285 6.86074 0.3855C7.16474 0.6425 7.37024 0.9715 7.47724 1.3725L8.22124 4.95C8.29124 5.37 8.27874 5.7365 8.18374 6.0495C8.08974 6.3625 7.92374 6.619 7.68574 6.819L4.39324 9.888C5.00924 11.006 5.68974 12.044 6.43474 13.002C7.17974 13.961 7.97474 14.8695 8.81974 15.7275C9.68974 16.5975 10.6267 17.4075 11.6307 18.1575C12.6347 18.9065 13.7367 19.6135 14.9367 20.2785L18.1452 17.013C18.3892 16.75 18.6637 16.5765 18.9687 16.4925C19.2737 16.4095 19.6107 16.393 19.9797 16.443L23.1357 17.088C23.5427 17.188 23.8732 17.393 24.1272 17.703C24.3812 18.014 24.5082 18.3705 24.5082 18.7725V22.425C24.5082 22.875 24.3552 23.25 24.0492 23.55C23.7442 23.85 23.3612 24 22.9032 24ZM3.68824 8.481L6.56824 5.832C6.66424 5.756 6.72624 5.6505 6.75424 5.5155C6.78424 5.3805 6.77924 5.2555 6.73924 5.1405L6.07474 1.9605C6.03574 1.8075 5.96824 1.6925 5.87224 1.6155C5.77624 1.5385 5.65174 1.5 5.49874 1.5H2.42074C2.30574 1.5 2.20974 1.5385 2.13274 1.6155C2.05574 1.6925 2.01724 1.7885 2.01724 1.9035C2.04624 2.9285 2.20624 3.9985 2.49724 5.1135C2.79024 6.2295 3.18624 7.352 3.68824 8.481ZM16.3647 20.982C17.3787 21.484 18.4587 21.8555 19.6047 22.0965C20.7527 22.3365 21.7527 22.465 22.6047 22.482C22.7197 22.482 22.8157 22.444 22.8927 22.368C22.9697 22.291 23.0082 22.1945 23.0082 22.0785V19.068C23.0082 18.914 22.9697 18.789 22.8927 18.693C22.8157 18.596 22.7007 18.5285 22.5477 18.4905L19.7727 17.922C19.6567 17.884 19.5552 17.879 19.4682 17.907C19.3822 17.937 19.2912 17.9995 19.1952 18.0945L16.3647 20.982Z" fill="black"/>
</svg>
