<svg width="25" height="24" viewBox="0 0 25 24" fill="none" xmlns="http://www.w3.org/2000/svg">
<path d="M22.6416 24L14.2416 15.6C13.5749 16.1333 12.8082 16.5556 11.9416 16.8667C11.0749 17.1778 10.1527 17.3333 9.17491 17.3333C6.75268 17.3333 4.70268 16.4945 3.02491 14.8167C1.34713 13.1389 0.50824 11.0889 0.50824 8.66667C0.50824 6.24445 1.34713 4.19445 3.02491 2.51667C4.70268 0.838895 6.75268 5.72205e-06 9.17491 5.72205e-06C11.5971 5.72205e-06 13.6471 0.838895 15.3249 2.51667C17.0027 4.19445 17.8416 6.24445 17.8416 8.66667C17.8416 9.64445 17.686 10.5667 17.3749 11.4333C17.0638 12.3 16.6416 13.0667 16.1082 13.7333L24.5082 22.1333L22.6416 24ZM9.17491 14.6667C10.8416 14.6667 12.2582 14.0833 13.4249 12.9167C14.5916 11.75 15.1749 10.3333 15.1749 8.66667C15.1749 7.00001 14.5916 5.58334 13.4249 4.41667C12.2582 3.25001 10.8416 2.66667 9.17491 2.66667C7.50824 2.66667 6.09157 3.25001 4.92491 4.41667C3.75824 5.58334 3.17491 7.00001 3.17491 8.66667C3.17491 10.3333 3.75824 11.75 4.92491 12.9167C6.09157 14.0833 7.50824 14.6667 9.17491 14.6667Z" fill="#1C1B1F"/>
</svg>
