<svg width="28" height="28" viewBox="0 0 28 28" fill="none" xmlns="http://www.w3.org/2000/svg">
<path d="M10.3333 27.3334L9.79998 23.0667C9.51109 22.9556 9.23886 22.8222 8.98331 22.6667C8.72775 22.5111 8.47775 22.3445 8.23331 22.1667L4.26664 23.8334L0.599976 17.5L4.03331 14.9C4.01109 14.7445 3.99998 14.5945 3.99998 14.45V13.55C3.99998 13.4056 4.01109 13.2556 4.03331 13.1L0.599976 10.5L4.26664 4.16669L8.23331 5.83335C8.47775 5.65558 8.73331 5.48891 8.99998 5.33335C9.26664 5.1778 9.53331 5.04447 9.79998 4.93335L10.3333 0.666687H17.6666L18.2 4.93335C18.4889 5.04447 18.7611 5.1778 19.0166 5.33335C19.2722 5.48891 19.5222 5.65558 19.7666 5.83335L23.7333 4.16669L27.4 10.5L23.9666 13.1C23.9889 13.2556 24 13.4056 24 13.55V14.45C24 14.5945 23.9778 14.7445 23.9333 14.9L27.3666 17.5L23.7 23.8334L19.7666 22.1667C19.5222 22.3445 19.2666 22.5111 19 22.6667C18.7333 22.8222 18.4666 22.9556 18.2 23.0667L17.6666 27.3334H10.3333ZM12.6666 24.6667H15.3L15.7666 21.1334C16.4555 20.9556 17.0944 20.6945 17.6833 20.35C18.2722 20.0056 18.8111 19.5889 19.3 19.1L22.6 20.4667L23.9 18.2L21.0333 16.0334C21.1444 15.7222 21.2222 15.3945 21.2666 15.05C21.3111 14.7056 21.3333 14.3556 21.3333 14C21.3333 13.6445 21.3111 13.2945 21.2666 12.95C21.2222 12.6056 21.1444 12.2778 21.0333 11.9667L23.9 9.80002L22.6 7.53335L19.3 8.93335C18.8111 8.42224 18.2722 7.99447 17.6833 7.65002C17.0944 7.30558 16.4555 7.04447 15.7666 6.86669L15.3333 3.33335H12.7L12.2333 6.86669C11.5444 7.04447 10.9055 7.30558 10.3166 7.65002C9.72775 7.99447 9.18886 8.41113 8.69998 8.90002L5.39998 7.53335L4.09998 9.80002L6.96664 11.9334C6.85553 12.2667 6.77775 12.6 6.73331 12.9334C6.68886 13.2667 6.66664 13.6222 6.66664 14C6.66664 14.3556 6.68886 14.7 6.73331 15.0334C6.77775 15.3667 6.85553 15.7 6.96664 16.0334L4.09998 18.2L5.39998 20.4667L8.69998 19.0667C9.18886 19.5778 9.72775 20.0056 10.3166 20.35C10.9055 20.6945 11.5444 20.9556 12.2333 21.1334L12.6666 24.6667ZM14.0666 18.6667C15.3555 18.6667 16.4555 18.2111 17.3666 17.3C18.2778 16.3889 18.7333 15.2889 18.7333 14C18.7333 12.7111 18.2778 11.6111 17.3666 10.7C16.4555 9.78891 15.3555 9.33335 14.0666 9.33335C12.7555 9.33335 11.65 9.78891 10.75 10.7C9.84998 11.6111 9.39997 12.7111 9.39997 14C9.39997 15.2889 9.84998 16.3889 10.75 17.3C11.65 18.2111 12.7555 18.6667 14.0666 18.6667Z" fill="black"/>
</svg>
