<svg width="32" height="32" viewBox="0 0 32 32" fill="none" xmlns="http://www.w3.org/2000/svg">
<path d="M20.4898 16.6498C23.8098 17.6205 26.7259 19.6409 28.801 22.4083C30.8761 25.1757 31.9985 28.541 32 32H0C0.00070951 28.5408 1.12281 25.1751 3.19803 22.4075C5.27325 19.64 8.18974 17.6198 11.5102 16.6498L16 23.3846L20.4898 16.6498ZM24 8C24 10.1217 23.1571 12.1566 21.6569 13.6569C20.1566 15.1571 18.1217 16 16 16C13.8783 16 11.8434 15.1571 10.3431 13.6569C8.84285 12.1566 8 10.1217 8 8C8 5.87827 8.84285 3.84344 10.3431 2.34315C11.8434 0.842854 13.8783 0 16 0C18.1217 0 20.1566 0.842854 21.6569 2.34315C23.1571 3.84344 24 5.87827 24 8Z" fill="#545353"/>
</svg>
