<svg width="9" height="9" viewBox="0 0 9 9" fill="none" xmlns="http://www.w3.org/2000/svg">
<path d="M2.74858 4.36364C2.80777 3.99432 2.95218 3.65814 3.18182 3.35511C3.41383 3.05208 3.69555 2.81061 4.02699 2.63068C4.3608 2.45076 4.71236 2.3608 5.08168 2.3608C5.40365 2.3608 5.6901 2.43182 5.94105 2.57386C6.192 2.71591 6.38613 2.90885 6.52344 3.1527C6.66312 3.39654 6.72585 3.67116 6.71165 3.97656H5.65341C5.64631 3.79427 5.58002 3.64867 5.45455 3.53977C5.33144 3.4285 5.16098 3.37287 4.94318 3.37287C4.76089 3.37287 4.58452 3.4143 4.41406 3.49716C4.24598 3.57765 4.10275 3.69247 3.98438 3.84162C3.866 3.9884 3.79025 4.16122 3.7571 4.36009C3.72869 4.53764 3.74053 4.70218 3.79261 4.85369C3.84706 5.00521 3.93584 5.12713 4.05895 5.21946C4.18442 5.30942 4.34186 5.3544 4.53125 5.3544C4.74432 5.3544 4.942 5.29877 5.12429 5.1875C5.30658 5.07386 5.43087 4.92827 5.49716 4.75071H6.5554C6.4678 5.05611 6.31629 5.33073 6.10085 5.57457C5.88778 5.81842 5.63447 6.01136 5.34091 6.15341C5.04972 6.29545 4.74195 6.36648 4.41761 6.36648C4.05066 6.36648 3.72988 6.27652 3.45526 6.09659C3.183 5.91667 2.98177 5.67519 2.85156 5.37216C2.72135 5.06913 2.68703 4.73295 2.74858 4.36364ZM4.10866 8.11364C3.59257 8.11364 3.12382 8.01657 2.70241 7.82244C2.28101 7.62831 1.9259 7.35961 1.63707 7.01634C1.34825 6.67069 1.14347 6.27178 1.02273 5.8196C0.904356 5.36506 0.888968 4.87973 0.976562 4.36364C1.06416 3.84517 1.2429 3.35985 1.51278 2.90767C1.78267 2.45312 2.11766 2.05421 2.51776 1.71094C2.92022 1.36766 3.36411 1.09896 3.84943 0.904829C4.33475 0.710701 4.83546 0.613636 5.35156 0.613636C5.87003 0.613636 6.33878 0.710701 6.75781 0.904829C7.17921 1.09896 7.53196 1.36766 7.81605 1.71094C8.10251 2.05421 8.30492 2.45312 8.4233 2.90767C8.54167 3.35985 8.55942 3.84517 8.47656 4.36364C8.3937 4.87973 8.21733 5.36506 7.94744 5.8196C7.67992 6.27178 7.34493 6.67069 6.94247 7.01634C6.54238 7.35961 6.09967 7.62831 5.61435 7.82244C5.12902 8.01657 4.62713 8.11364 4.10866 8.11364ZM4.16193 6.93111C4.52888 6.93111 4.88755 6.86127 5.23793 6.72159C5.5883 6.57955 5.90791 6.38423 6.19673 6.13565C6.48556 5.88471 6.72704 5.59588 6.92116 5.26918C7.11766 4.94247 7.2455 4.59564 7.30469 4.22869C7.36151 3.88305 7.35204 3.56226 7.27628 3.26634C7.20289 2.97041 7.07505 2.71354 6.89276 2.49574C6.71046 2.27557 6.48319 2.10393 6.21094 1.98082C5.94105 1.85772 5.63565 1.79616 5.29474 1.79616C4.92779 1.79616 4.57031 1.86719 4.2223 2.00923C3.87429 2.14891 3.55469 2.34422 3.26349 2.59517C2.97467 2.84612 2.73201 3.13494 2.53551 3.46165C2.33902 3.78598 2.20881 4.134 2.14489 4.50568C2.08807 4.84422 2.09635 5.16146 2.16974 5.45739C2.2455 5.75095 2.37453 6.009 2.55682 6.23153C2.73911 6.4517 2.96638 6.62334 3.23864 6.74645C3.51326 6.86955 3.82102 6.93111 4.16193 6.93111Z" fill="black"/>
</svg>
